<?xml version="1.0" encoding="UTF-8"?>
<svg width="195px" height="24px" viewBox="0 0 195 24" version="1.1" xmlns="http://www.w3.org/2000/svg" xmlns:xlink="http://www.w3.org/1999/xlink">
    <title>C95F3B99-A94E-4716-A870-BB5426DF6F52</title>
    <g id="Page-1" stroke="none" stroke-width="1" fill="none" fill-rule="evenodd">
        <g id="Ad-Spend-Calculator-2" transform="translate(-623.000000, -48.000000)">
            <g id="Growth-Tools-/-Logo-/-Plain" transform="translate(623.000000, 48.000000)">
                <g id="Growth-Tools-Logo" transform="translate(0.000000, 0.750000)">
                    <path d="M10.9855169,22.0635776 C4.94516899,22.0635776 -2.84217094e-14,17.1290948 -2.84217094e-14,11.0319828 C-2.84217094e-14,4.96551724 4.94516899,0 10.9855169,0 C14.1780119,0 17.1824851,1.38297414 19.2794135,3.77146552 C19.9369085,4.52599138 19.8430915,5.68862069 19.0917793,6.34887931 C18.3404672,7.00875 17.1824851,6.9462931 16.5253777,6.19176724 C15.1169583,4.58883621 13.1138469,3.64577586 10.9855169,3.64577586 C6.94828032,3.64577586 3.6305666,6.97732759 3.6305666,11.0319828 C3.6305666,15.1176724 6.94828032,18.4178017 10.9855169,18.4178017 C12.8948111,18.4178017 14.7099006,17.6636638 16.0873062,16.3749569 L16.0873062,13.5775862 L11.6740258,13.5775862 C10.672664,13.5775862 9.85893638,12.7602155 9.85893638,11.7543103 C9.85893638,10.7484052 10.672664,9.93103448 11.6740258,9.93103448 L17.9027833,9.93103448 C18.9045328,9.93103448 19.7182604,10.7484052 19.7182604,11.7543103 L19.7182604,17.0972845 C19.7182604,17.5371983 19.5616402,17.9775 19.2801889,18.2917241 C17.1828728,20.7116379 14.1783996,22.0631897 10.9859046,22.0631897 L10.9855169,22.0635776 Z M30.5564612,5.12301724 C31.5896123,5.12301724 32.40334,5.94038793 32.40334,6.9462931 C32.40334,7.95181034 31.5892247,8.7687931 30.5564612,8.7687931 C28.5537376,8.7687931 27.0511133,10.4031466 27.0511133,12.6349138 L27.0511133,20.2406897 C27.0511133,21.2465948 26.2373857,22.0639655 25.2360239,22.0639655 C24.2342744,22.0639655 23.4205467,21.2465948 23.4205467,20.2406897 L23.4205467,6.56883621 C23.4205467,5.56293103 24.234662,4.74556034 25.2360239,4.74556034 C26.0811531,4.74556034 26.769662,5.31193966 26.9883101,6.0975 C28.0687495,5.45813822 29.3012366,5.12153885 30.5564612,5.12301724 Z M41.9122068,22.1578448 C37.154672,22.1578448 33.3050696,18.2606897 33.3050696,13.5147414 C33.3050696,8.73737069 37.154672,4.84021552 41.9122068,4.84021552 C46.6689662,4.84021552 50.5503579,8.73737069 50.5503579,13.5147414 C50.5503579,18.2606897 46.6693539,22.1578448 41.9122068,22.1578448 L41.9122068,22.1578448 Z M41.9122068,8.48599138 C39.1577833,8.48599138 36.9356362,10.7487931 36.9356362,13.5147414 C36.9356362,16.2492672 39.1577833,18.512069 41.9122068,18.512069 C44.6662425,18.512069 46.8883897,16.2492672 46.8883897,13.5147414 C46.8883897,10.7487931 44.6662425,8.48599138 41.9122068,8.48599138 Z M87.8895626,17.8836207 C88.6718887,18.512069 88.7657058,19.6750862 88.1085984,20.4606466 C87.2324553,21.4665517 85.9492545,22.0635776 84.6032505,22.0635776 C82.0678628,22.0635776 80.002336,19.9893103 80.002336,17.443319 L80.002336,8.39172414 C79.0633897,8.36030172 78.2810636,7.54331897 78.2810636,6.56844828 C78.2810636,5.59474138 79.0633897,4.77737069 80.002336,4.74594828 L80.002336,2.73452586 C80.002336,1.72862069 80.8160636,0.91125 81.848827,0.91125 C82.8505765,0.91125 83.6643042,1.72862069 83.6643042,2.73452586 L83.6643042,4.74594828 L85.9802684,4.74594828 C86.9816302,4.74594828 87.7953579,5.56293103 87.7953579,6.56883621 C87.7953579,7.57474138 86.9816302,8.39172414 85.9802684,8.39172414 L83.6643042,8.39172414 L83.6643042,17.443319 C83.6643042,17.9778879 84.0713618,18.4178017 84.6032505,18.4178017 C84.8831889,18.4182884 85.1480778,18.2910402 85.3227734,18.0721552 C85.9802684,17.3176293 87.1382505,17.2233621 87.889175,17.8836207 L87.8895626,17.8836207 Z M103.530268,7.00875 C104.813469,8.39172414 105.501978,10.2774569 105.501978,12.2574569 L105.501978,20.2410776 C105.501978,21.2465948 104.68825,22.0635776 103.686889,22.0635776 C102.685139,22.0635776 101.871412,21.2465948 101.871412,20.2406897 L101.871412,12.2574569 C101.871412,10.0260776 100.400577,8.39172414 98.3660636,8.39172414 C96.3319384,8.39172414 94.8607157,10.0260776 94.8607157,12.2574569 L94.8607157,20.2410776 C94.8607157,21.2465948 94.0469881,22.0635776 93.0142247,22.0635776 C92.0124751,22.0635776 91.1987475,21.2465948 91.1987475,20.2406897 L91.1987475,1.82327586 C91.1987475,0.81737069 92.0128628,0.000387931034 93.0142247,0.000387931034 C94.0469881,0.000387931034 94.8607157,0.81737069 94.8607157,1.82366379 L94.8607157,5.65758621 C95.8934791,5.06056034 97.0828628,4.74594828 98.3660636,4.74594828 C100.369175,4.74594828 102.215666,5.56331897 103.530268,7.00913793 L103.530268,7.00875 Z M136.061928,0 C137.06329,0 137.877018,0.816982759 137.877018,1.82327586 C137.877018,2.8287931 137.06329,3.64577586 136.061928,3.64577586 L131.085358,3.64577586 L131.085358,20.2406897 C131.085358,21.2465948 130.27163,22.0639655 129.238867,22.0639655 C128.237505,22.0639655 127.423777,21.2465948 127.423777,20.2406897 L127.423777,3.64577586 L122.446819,3.64577586 C121.445457,3.64577586 120.63173,2.8287931 120.63173,1.82288793 C120.63173,0.816982759 121.445845,0 122.446819,0 L136.061541,0 L136.061928,0 Z M144.935398,22.1578448 C140.177863,22.1578448 136.32826,18.2606897 136.32826,13.5147414 C136.32826,8.73737069 140.177863,4.84021552 144.935398,4.84021552 C149.692545,4.84021552 153.573549,8.73737069 153.573549,13.5147414 C153.573549,18.2606897 149.692932,22.1578448 144.935398,22.1578448 Z M144.935398,8.48599138 C142.180974,8.48599138 139.958827,10.7487931 139.958827,13.5147414 C139.958827,16.2492672 142.180974,18.512069 144.935398,18.512069 C147.689433,18.512069 149.911581,16.2492672 149.911581,13.5147414 C149.911581,10.7487931 147.689433,8.48599138 144.935398,8.48599138 Z M164.482694,22.1578448 C159.725547,22.1578448 155.875944,18.2606897 155.875944,13.5147414 C155.875944,8.73737069 159.725547,4.84021552 164.482694,4.84021552 C169.240229,4.84021552 173.120845,8.73737069 173.120845,13.5147414 C173.120845,18.2606897 169.240229,22.1578448 164.482694,22.1578448 Z M164.482694,8.48599138 C161.728658,8.48599138 159.506511,10.7487931 159.506511,13.5147414 C159.506511,16.2492672 161.728658,18.512069 164.482694,18.512069 C167.237117,18.512069 169.459264,16.2492672 169.459264,13.5147414 C169.459264,10.7487931 167.237117,8.48599138 164.482694,8.48599138 Z M178.095089,22.0635776 C177.093728,22.0635776 176.28,21.2465948 176.28,20.2406897 L176.28,1.82327586 C176.28,0.81737069 177.093728,0.000387931034 178.095089,0.000387931034 C179.096839,0.000387931034 179.941581,0.81737069 179.941581,1.82366379 L179.941581,20.2410776 C179.941581,21.2469828 179.096451,22.0643534 178.095089,22.0643534 L178.095089,22.0635776 Z M189.084483,22.0635776 C186.611899,22.0635776 184.51497,20.8377155 183.638439,18.8891379 C183.200368,17.9775 183.607425,16.8777155 184.514583,16.4692241 C185.453917,16.0293103 186.518082,16.4378017 186.924751,17.3490517 C187.175189,17.8521983 187.863698,18.4178017 189.084095,18.4178017 C190.774354,18.4178017 191.369046,17.3804741 191.369046,16.689181 C191.369046,15.7465086 191.118608,15.463319 188.677425,14.8348707 C187.581859,14.5834914 186.455278,14.3006897 185.48493,13.6718534 C184.170716,12.7920259 183.450805,11.4718966 183.450805,9.8375431 C183.450805,8.54883621 184.014095,7.26012931 184.984443,6.3174569 C186.017207,5.31155172 187.45664,4.74594828 189.084483,4.74594828 C191.400447,4.74594828 193.372157,5.8775431 194.217286,7.73185345 C194.655358,8.64349138 194.2483,9.71185345 193.341143,10.1517672 C192.433211,10.591681 191.337644,10.1831897 190.930974,9.27193966 C190.742952,8.86306034 190.148648,8.39172414 189.084483,8.39172414 C187.644662,8.39172414 187.112386,9.30336207 187.112386,9.8375431 C187.112386,10.4659914 187.237604,10.7173707 189.553956,11.3147845 C191.588082,11.8175431 194.999612,12.6663362 194.999612,16.689181 C194.999612,18.0407328 194.436322,19.3922845 193.434573,20.3978017 C192.652247,21.1523276 191.275229,22.0635776 189.084483,22.0635776 L189.084483,22.0635776 Z" id="Text" fill="#2CD886" fill-rule="nonzero"></path>
                    <path d="M55.6288867,6.56379272 C56.0989999,6.56348435 56.5499698,6.75011698 56.8825355,7.08261219 C57.2151012,7.41510741 57.4020046,7.86621287 57.4021074,8.33663793 L57.4021074,20.3314655 C57.4020046,20.8018906 57.2151012,21.252996 56.8825355,21.5854913 C56.5499698,21.9179865 56.0989999,22.1046191 55.6288867,22.1043107 C55.1587735,22.1046191 54.7078036,21.9179865 54.3752379,21.5854913 C54.0426722,21.252996 53.8557687,20.8018906 53.855666,20.3314655 L53.855666,8.33663793 C53.8557687,7.86621287 54.0426722,7.41510741 54.3752379,7.08261219 C54.7078036,6.75011698 55.1587735,6.56348435 55.6288867,6.56379272 L55.6288867,6.56379272 Z M67.3668787,8.11551686 C67.8369919,8.11520848 68.2879618,8.30184112 68.6205275,8.63433633 C68.9530932,8.96683155 69.1399967,9.41793701 69.1400994,9.88836207 L69.1400994,20.3314655 C69.1399967,20.8018906 68.9530932,21.252996 68.6205275,21.5854913 C68.2879618,21.9179865 67.8369919,22.1046191 67.3668787,22.1043107 C66.8967655,22.1046191 66.4457956,21.9179865 66.1132299,21.5854913 C65.7806642,21.252996 65.5937608,20.8018906 65.5936581,20.3314655 L65.5936581,9.88836207 C65.5937608,9.41793701 65.7806642,8.96683155 66.1132299,8.63433633 C66.4457956,8.30184112 66.8967655,8.11520848 67.3668787,8.11551686 Z M61.6041054,13.1807324 C62.0740843,13.180424 62.5249367,13.3669502 62.8574801,13.6992776 C63.1900235,14.031605 63.3770177,14.4825111 63.377326,14.9528017 L63.377326,20.3318534 C63.3771205,20.8022113 63.1901717,21.2532171 62.8576171,21.5856284 C62.5250626,21.9180397 62.0741514,22.1046191 61.6041054,22.1043107 C61.1339921,22.1046191 60.6830223,21.9179865 60.3504566,21.5854913 C60.0178909,21.252996 59.8309874,20.8018906 59.8308847,20.3314655 L59.8308847,14.9531897 C59.831193,14.4828991 60.0181872,14.0319929 60.3507306,13.6996655 C60.683274,13.3673381 61.1341264,13.1807324 61.6041054,13.1811207 L61.6041054,13.1807324 Z M73.4839861,0.703318583 C73.953965,0.703010207 74.4048174,0.88953636 74.7373608,1.22186378 C75.0699042,1.5541912 75.2568984,2.00509733 75.2572068,2.47538793 L75.2572068,20.3318534 C75.2570012,20.8022113 75.0700524,21.2532171 74.7374978,21.5856284 C74.4049433,21.9180397 73.9540322,22.1046191 73.4839861,22.1043107 C73.0138729,22.1046191 72.562903,21.9179865 72.2303373,21.5854913 C71.8977716,21.252996 71.7108682,20.8018906 71.7107654,20.3314655 L71.7107654,2.47577586 C71.710971,2.00541803 71.8979198,1.55441224 72.2304743,1.22200092 C72.5630289,0.889589614 73.01394,0.703010219 73.4839861,0.703318583 Z" id="Icon" fill="#FFFFFF"></path>
                </g>
            </g>
        </g>
    </g>
</svg>