<?xml version="1.0" encoding="UTF-8"?>
<svg width="948px" height="211px" viewBox="0 0 948 211" version="1.1" xmlns="http://www.w3.org/2000/svg" xmlns:xlink="http://www.w3.org/1999/xlink">
    <title>C778FD3D-7AFC-4B13-A541-6B49DEA8FC81</title>
    <g id="Page-1" stroke="none" stroke-width="1" fill="none" fill-rule="evenodd">
        <g id="Hero" transform="translate(-276.000000, 0.000000)" fill="#0E143E">
            <polygon id="Star" points="750 173.73019 707.67919 210.670015 670.32188 168.717267 623.704994 200.061607 591.900331 153.757557 541.722546 179.012092 515.972108 129.086982 463.024757 147.853433 443.734645 95.094612 388.85274 107.077022 376.32717 52.3165273 320.376231 57.3259256 314.812738 1.42736382 258.675145 -0.615250604 260.16147 -56.7703261 204.722546 -65.83274 213.235248 -121.35873 159.369298 -137.298024 174.774126 -191.31925 123.330649 -213.884051 145.38466 -265.548568 97.1749494 -294.383016 125.53034 -342.876041 81.3146913 -377.525401 115.524279 -422.082171 76 -462 115.524279 -501.917829 81.3146913 -546.474599 125.53034 -581.123959 97.1749494 -629.616984 145.38466 -658.451432 123.330649 -710.115949 174.774126 -732.68075 159.369298 -786.701976 213.235248 -802.64127 204.722546 -858.16726 260.16147 -867.229674 258.675145 -923.384749 314.812738 -925.427364 320.376231 -981.325926 376.32717 -976.316527 388.85274 -1031.07702 443.734645 -1019.09461 463.024757 -1071.85343 515.972108 -1053.08698 541.722546 -1103.01209 591.900331 -1077.75756 623.704994 -1124.06161 670.32188 -1092.71727 707.67919 -1134.67001 750 -1097.73019 792.32081 -1134.67001 829.67812 -1092.71727 876.295006 -1124.06161 908.099669 -1077.75756 958.277454 -1103.01209 984.027892 -1053.08698 1036.97524 -1071.85343 1056.26535 -1019.09461 1111.14726 -1031.07702 1123.67283 -976.316527 1179.62377 -981.325926 1185.18726 -925.427364 1241.32485 -923.384749 1239.83853 -867.229674 1295.27745 -858.16726 1286.76475 -802.64127 1340.6307 -786.701976 1325.22587 -732.68075 1376.66935 -710.115949 1354.61534 -658.451432 1402.82505 -629.616984 1374.46966 -581.123959 1418.68531 -546.474599 1384.47572 -501.917829 1424 -462 1384.47572 -422.082171 1418.68531 -377.525401 1374.46966 -342.876041 1402.82505 -294.383016 1354.61534 -265.548568 1376.66935 -213.884051 1325.22587 -191.31925 1340.6307 -137.298024 1286.76475 -121.35873 1295.27745 -65.83274 1239.83853 -56.7703261 1241.32485 -0.615250604 1185.18726 1.42736382 1179.62377 57.3259256 1123.67283 52.3165273 1111.14726 107.077022 1056.26535 95.094612 1036.97524 147.853433 984.027892 129.086982 958.277454 179.012092 908.099669 153.757557 876.295006 200.061607 829.67812 168.717267 792.32081 210.670015"></polygon>
        </g>
    </g>
</svg>