<?xml version="1.0" encoding="UTF-8"?>
<svg width="25px" height="24px" viewBox="0 0 25 24" version="1.1" xmlns="http://www.w3.org/2000/svg" xmlns:xlink="http://www.w3.org/1999/xlink">
    <title>D84E7CD4-5F9F-49BF-8389-1CD53200AC4D</title>
    <defs>
        <path d="M15.3833112,-6.21504185e-16 L872.616689,6.21504185e-16 C877.965801,-3.61111829e-16 879.905519,0.556953667 881.861074,1.60279622 C883.81663,2.64863878 885.351361,4.18337022 886.397204,6.13892578 C887.443046,8.09448133 888,10.0341988 888,15.3833112 L888,1501.61669 C888,1506.9658 887.443046,1508.90552 886.397204,1510.86107 C885.351361,1512.81663 883.81663,1514.35136 881.861074,1515.3972 C879.905519,1516.44305 877.965801,1517 872.616689,1517 L15.3833112,1517 C10.0341988,1517 8.09448133,1516.44305 6.13892578,1515.3972 C4.18337022,1514.35136 2.64863878,1512.81663 1.60279622,1510.86107 C0.556953667,1508.90552 2.4074122e-16,1506.9658 -4.14336123e-16,1501.61669 L4.14336123e-16,15.3833112 C-2.4074122e-16,10.0341988 0.556953667,8.09448133 1.60279622,6.13892578 C2.64863878,4.18337022 4.18337022,2.64863878 6.13892578,1.60279622 C8.09448133,0.556953667 10.0341988,3.61111829e-16 15.3833112,-6.21504185e-16 Z" id="path-1"></path>
        <filter x="-2.8%" y="-1.5%" width="105.6%" height="103.3%" filterUnits="objectBoundingBox" id="filter-2">
            <feOffset dx="0" dy="2" in="SourceAlpha" result="shadowOffsetOuter1"></feOffset>
            <feGaussianBlur stdDeviation="8" in="shadowOffsetOuter1" result="shadowBlurOuter1"></feGaussianBlur>
            <feColorMatrix values="0 0 0 0 0   0 0 0 0 0   0 0 0 0 0  0 0 0 0.08 0" type="matrix" in="shadowBlurOuter1"></feColorMatrix>
        </filter>
    </defs>
    <g id="Page-1" stroke="none" stroke-width="1" fill="none" fill-rule="evenodd">
        <g id="Ad-Spend-Calculator-1" transform="translate(-900.000000, -1324.000000)">
            <rect fill="#F9FAFA" x="0" y="0" width="1440" height="3073"></rect>
            <g id="Calculator" transform="translate(276.000000, 488.000000)" fill-rule="nonzero">
                <g id="Combined-Shape">
                    <use fill="black" fill-opacity="1" filter="url(#filter-2)" xlink:href="#path-1"></use>
                    <use fill="#FFFFFF" xlink:href="#path-1"></use>
                </g>
            </g>
            <g id="Results" transform="translate(732.000000, 528.000000)" fill="#CFD8DC" fill-rule="nonzero">
                <g id="Disclaimer" transform="translate(50.000000, 796.000000)">
                    <g id="All-/-Icon-/-Ribbon" transform="translate(118.000000, 0.000000)">
                        <path d="M12,3 C12.9209742,3 13.7413798,3.38298408 14.4171002,4.04114751 L14.5704473,4.19786716 L14.7254239,4.36391435 L20.49,14.322 L20.5548293,14.4119584 C20.7884954,14.765393 20.9220709,15.1597703 20.9742545,15.5765034 L20.9936502,15.7866469 L21,16 C21,16.8234149 20.6907439,17.585511 20.0966008,18.1584441 C19.5802156,18.6563845 18.9288954,18.9444795 18.2219924,18.9927452 L18.0083333,19 L5.99166667,19 C5.20271944,19 4.47142857,18.7061797 3.90338939,18.1584347 C3.30925578,17.5855152 3,16.8234168 3,16 C3,15.4554003 3.15731819,15.0165039 3.43239126,14.5288322 L3.55737385,14.3163934 L9.27221887,4.36643998 L9.42955272,4.19786716 C10.132999,3.44417088 11.0081817,3 12,3 Z M12,5 C11.6597211,5 11.3343313,5.14355325 11.0238281,5.43066352 L10.8916667,5.5625 L5.29166667,15.3125 C5.09722222,15.6319427 5,15.8611093 5,16 C5,16.291668 5.09721973,16.531248 5.29166667,16.718752 C5.45370578,16.875002 5.64274674,16.9661464 5.85879604,16.9921876 L5.99166667,17 L18.0083333,17 C18.2805568,17 18.5138879,16.906252 18.7083333,16.718752 C18.9027787,16.531248 19,16.291668 19,16 C19,15.8 18.962667,15.64 18.8880002,15.52 L18.825,15.4375 L13.1083333,5.5625 C12.7583333,5.18749812 12.3888901,5 12,5 Z M12.5,14 C12.7761424,14 13,14.2238576 13,14.5 L13,15.5 C13,15.7761424 12.7761424,16 12.5,16 L11.5,16 C11.2238576,16 11,15.7761424 11,15.5 L11,14.5 C11,14.2238576 11.2238576,14 11.5,14 L12.5,14 Z M12.5,7 C12.7761424,7 13,7.22385763 13,7.5 L13,12.5 C13,12.7761424 12.7761424,13 12.5,13 L11.5,13 C11.2238576,13 11,12.7761424 11,12.5 L11,7.5 C11,7.22385763 11.2238576,7 11.5,7 L12.5,7 Z" id="Alert-Icon"></path>
                    </g>
                </g>
            </g>
        </g>
    </g>
</svg>